FILE "tekken3_1" BINARY
  TRACK 01 MODE2/2352
    INDEX 01 00:00:00
FILE "tekken3_2" BINARY
  TRACK 02 AUDIO
    INDEX 00 00:00:00
    INDEX 01 00:02:00
FILE "tekken3_3" BINARY
  TRACK 03 AUDIO
    INDEX 00 00:00:00
    INDEX 01 00:02:00
